:FULLY-SPECIFIED
:FORCE-ALL-JOINTS-BE-3DOF
:DEGREES
469
root 10.8965 17.3827 29.5206 4.20492 3.6641 3.32218
lfemur -6.70954 2.80155 -29.1245
ltibia 19.901 0 0
lfoot -16.7924 3.86165 0
ltoes 4.68962 0 0
rfemur -33.1406 1.49756 15.0399
rtibia 50.7028 0 0
rfoot -20.3105 -7.88251 0
rtoes -16.6252 0 0
lowerback -5.20523 -3.75012 -4.10006
upperback -0.0406815 -4.78778 1.73262
thorax 3.36567 -2.47055 3.67311
lowerneck -22.1815 -2.65415 -10.2837
upperneck 24.7485 -2.99667 9.93229
head 12.1438 -1.01729 5.02072
lclavicle 8.52615e-15 1.68718e-14 0
lhumerus -12.9153 -19.8222 85.9561
lradius 26.9949 0 0
lwrist 3.26998 0 0
lhand -14.5132 -24.4237 0
lfingers 7.12502 0 0
lthumb 11.634 5.22859 0
rclavicle 8.52615e-15 1.68718e-14 0
rhumerus -46.3258 10.3797 -86.5365
rradius 38.8748 0 0
rwrist -19.2171 0 0
rhand -34.7158 -22.6328 0
rfingers 7.12502 0 0
rthumb -7.87056 -52.4674 0
470
root 10.9011 17.3815 29.6426 4.18012 3.72468 3.43887
lfemur -5.4451 2.78471 -29.2131
ltibia 18.463 0 0
lfoot -16.5921 3.89747 0
ltoes 4.62611 0 0
rfemur -33.7077 1.9981 14.668
rtibia 49.2199 0 0
rfoot -20.5415 -7.71236 0
rtoes -16.2482 0 0
lowerback -5.33318 -3.84612 -4.21559
upperback 0.10471 -4.90036 1.72125
thorax 3.61044 -2.53653 3.69895
lowerneck -22.2843 -2.6148 -10.2221
upperneck 24.7177 -2.94668 9.91957
head 12.1443 -0.988079 5.01307
lclavicle 6.32756e-15 1.75225e-14 0
lhumerus -12.2559 -19.9633 85.6755
lradius 27.4175 0 0
lwrist 3.65835 0 0
lhand -14.745 -24.5077 0
lfingers 7.12502 0 0
lthumb 11.4105 5.15661 0
rclavicle 6.32756e-15 1.75225e-14 0
rhumerus -46.3372 10.3347 -86.4812
rradius 38.9674 0 0
rwrist -19.3611 0 0
rhand -34.6297 -22.5955 0
rfingers 7.12502 0 0
rthumb -7.78747 -52.4333 0
471
root 10.9053 17.38 29.7653 4.16044 3.77833 3.55932
lfemur -4.15551 2.77017 -29.304
ltibia 16.9692 0 0
lfoot -16.3639 3.93811 0
ltoes 4.54104 0 0
rfemur -34.2515 2.51347 14.2801
rtibia 47.685 0 0
rfoot -20.7277 -7.53341 0
rtoes -15.8366 0 0
lowerback -5.46989 -3.93736 -4.33485
upperback 0.249481 -5.00591 1.70691
thorax 3.85946 -2.59921 3.72344
lowerneck -22.381 -2.57763 -10.1645
upperneck 24.6813 -2.90038 9.91159
head 12.1424 -0.960465 5.00715
lclavicle 4.02782e-15 1.81678e-14 0
lhumerus -11.6215 -20.0803 85.3906
lradius 27.8462 0 0
lwrist 4.0475 0 0
lhand -14.9804 -24.5939 0
lfingers 7.12502 0 0
lthumb 11.1834 5.0825 0
rclavicle 4.02782e-15 1.81678e-14 0
rhumerus -46.3518 10.2881 -86.4319
rradius 39.0448 0 0
rwrist -19.4973 0 0
rhand -34.5322 -22.5642 0
rfingers 7.12502 0 0
rthumb -7.69331 -52.4057 0
472
root 10.9091 17.3781 29.8886 4.14577 3.82593 3.68223
lfemur -2.84887 2.75721 -29.3955
ltibia 15.4364 0 0
lfoot -16.1135 3.98263 0
ltoes 4.43482 0 0
rfemur -34.7731 3.03811 13.8816
rtibia 46.1146 0 0
rfoot -20.875 -7.34987 0
rtoes -15.4015 0 0
lowerback -5.61344 -4.0241 -4.45659
upperback 0.392506 -5.105 1.69014
thorax 4.11037 -2.65874 3.74662
lowerneck -22.472 -2.54268 -10.1107
upperneck 24.6402 -2.85771 9.90808
head 12.1382 -0.934429 5.00285
lclavicle 1.67355e-15 1.87959e-14 0
lhumerus -11.0158 -20.1773 85.1056
lradius 28.2782 0 0
lwrist 4.43509 0 0
lhand -15.2165 -24.6817 0
lfingers 7.12502 0 0
lthumb 10.9557 5.00667 0
rclavicle 1.67355e-15 1.87959e-14 0
rhumerus -46.37 10.239 -86.387
rradius 39.1064 0 0
rwrist -19.6245 0 0
rhand -34.4241 -22.5394 0
rfingers 7.12502 0 0
rthumb -7.58901 -52.3848 0
473
root 10.9123 17.3758 30.0128 4.13599 3.86837 3.80635
lfemur -1.53328 2.74514 -29.4859
ltibia 13.8809 0 0
lfoot -15.8468 4.03004 0
ltoes 4.30787 0 0
rfemur -35.2733 3.56649 13.4779
rtibia 44.5252 0 0
rfoot -20.9894 -7.16594 0
rtoes -14.9542 0 0
lowerback -5.76191 -4.10662 -4.57955
upperback 0.532662 -5.19816 1.67147
thorax 4.36081 -2.71531 3.76857
lowerneck -22.5577 -2.50996 -10.0608
upperneck 24.5952 -2.8186 9.90875
head 12.1322 -0.90996 5.00012
lclavicle -6.88636e-16 1.93948e-14 0
lhumerus -10.4422 -20.2579 84.8249
lradius 28.7105 0 0
lwrist 4.81875 0 0
lhand -15.4501 -24.7707 0
lfingers 7.12502 0 0
lthumb 10.7303 4.92954 0
rclavicle -6.88636e-16 1.93948e-14 0
rhumerus -46.392 10.1864 -86.3452
rradius 39.1513 0 0
rwrist -19.7414 0 0
rhand -34.3065 -22.5213 0
rfingers 7.12502 0 0
rthumb -7.47552 -52.3709 0
474
root 10.9148 17.373 30.1381 4.131 3.9065 3.93038
lfemur -0.216873 2.73324 -29.5734
ltibia 12.3193 0 0
lfoot -15.5692 4.07939 0
ltoes 4.16058 0 0
rfemur -35.753 4.09303 13.0746
rtibia 42.9331 0 0
rfoot -21.0768 -6.98584 0
rtoes -14.5056 0 0
lowerback -5.91339 -4.18517 -4.7025
upperback 0.668824 -5.28595 1.65145
thorax 4.60845 -2.76908 3.78932
lowerneck -22.6384 -2.47951 -10.0146
upperneck 24.547 -2.78299 9.91334
head 12.1247 -0.887047 4.99885
lclavicle -3.01213e-15 1.99528e-14 0
lhumerus -9.90414 -20.326 84.5527
lradius 29.1403 0 0
lwrist 5.19614 0 0
lhand -15.6785 -24.8603 0
lfingers 7.12502 0 0
lthumb 10.5101 4.8515 0
rclavicle -3.01213e-15 1.99528e-14 0
rhumerus -46.418 10.1292 -86.305
rradius 39.1789 0 0
rwrist -19.847 0 0
rhand -34.1804 -22.5104 0
rfingers 7.12502 0 0
rthumb -7.35377 -52.3644 0
475
root 10.9167 17.3695 30.2644 4.13069 3.94122 4.05306
lfemur 1.09226 2.7208 -29.6563
ltibia 10.768 0 0
lfoot -15.2867 4.12969 0
ltoes 3.99338 0 0
rfemur -36.2132 4.61219 12.6771
rtibia 41.3549 0 0
rfoot -21.1433 -6.81379 0
rtoes -14.0668 0 0
lowerback -6.06595 -4.26004 -4.82418
upperback 0.799868 -5.36892 1.63063
thorax 4.85091 -2.82023 3.80894
lowerneck -22.7146 -2.45135 -9.9722
upperneck 24.4965 -2.75082 9.92155
head 12.1162 -0.865677 4.99898
lclavicle -5.25034e-15 2.0458e-14 0
lhumerus -9.40524 -20.3855 84.2936
lradius 29.5646 0 0
lwrist 5.56491 0 0
lhand -15.8984 -24.95 0
lfingers 7.12502 0 0
lthumb 10.2979 4.77297 0
rclavicle -5.25034e-15 2.0458e-14 0
rhumerus -46.4482 10.0666 -86.265
rradius 39.1884 0 0
rwrist -19.9399 0 0
rhand -34.0467 -22.507 0
rfingers 7.12502 0 0
rthumb -7.22468 -52.3655 0
476
root 10.9178 17.3654 30.392 4.13493 3.97339 4.17312
lfemur 2.386 2.70711 -29.7328
ltibia 9.24374 0 0
lfoot -15.0048 4.17998 0
ltoes 3.80666 0 0
rfemur -36.6548 5.11842 12.2909
rtibia 39.8069 0 0
rfoot -21.1947 -6.65399 0
rtoes -13.6491 0 0
lowerback -6.21769 -4.33149 -4.94333
upperback 0.92467 -5.44762 1.60954
thorax 5.08586 -2.86893 3.82748
lowerneck -22.7867 -2.42552 -9.93347
upperneck 24.4446 -2.72201 9.93311
head 12.1068 -0.845839 5.00043
lclavicle -7.35663e-15 2.08986e-14 0
lhumerus -8.94897 -20.4402 84.0517
lradius 29.9806 0 0
lwrist 5.92272 0 0
lhand -16.107 -25.0391 0
lfingers 7.12502 0 0
lthumb 10.0967 4.69435 0
rclavicle -7.35663e-15 2.08986e-14 0
rhumerus -46.4829 9.99746 -86.2237
rradius 39.179 0 0
rwrist -20.019 0 0
rhand -33.9063 -22.5115 0
rfingers 7.12502 0 0
rthumb -7.0892 -52.3747 0
477
root 10.918 17.3605 30.5209 4.14363 4.00389 4.28927
lfemur 3.65625 2.69146 -29.8012
ltibia 7.76285 0 0
lfoot -14.7293 4.22929 0
ltoes 3.60083 0 0
rfemur -37.0787 5.60617 11.9215
rtibia 38.3056 0 0
rfoot -21.2371 -6.51066 0
rtoes -13.2634 0 0
lowerback -6.36668 -4.39979 -5.05872
upperback 1.04211 -5.5226 1.58873
thorax 5.31094 -2.91535 3.84499
lowerneck -22.8549 -2.40204 -9.89839
upperneck 24.3919 -2.69651 9.94774
head 12.097 -0.827521 5.0031
lclavicle -9.28441e-15 2.12626e-14 0
lhumerus -8.53887 -20.4939 83.8314
lradius 30.3854 0 0
lwrist 6.2672 0 0
lhand -16.3013 -25.1271 0
lfingers 7.12502 0 0
lthumb 9.90935 4.61606 0
rclavicle -9.28441e-15 2.12626e-14 0
rhumerus -46.5222 9.92089 -86.1798
rradius 39.15 0 0
rwrist -20.083 0 0
rhand -33.7603 -22.5243 0
rfingers 7.12502 0 0
rthumb -6.94827 -52.3922 0
478
root 10.9173 17.3547 30.6514 4.15667 4.03359 4.40024
lfemur 4.89489 2.67314 -29.8597
ltibia 6.34191 0 0
lfoot -14.4659 4.27666 0
ltoes 3.37631 0 0
rfemur -37.4859 6.06987 11.5743
rtibia 36.8674 0 0
rfoot -21.2765 -6.388 0
rtoes -12.9209 0 0
lowerback -6.511 -4.46522 -5.16909
upperback 1.15105 -5.5944 1.56873
thorax 5.5238 -2.95967 3.86153
lowerneck -22.9198 -2.38093 -9.86689
upperneck 24.3395 -2.67424 9.96516
head 12.0872 -0.810711 5.00693
lclavicle -1.09871e-14 2.15383e-14 0
lhumerus -8.17842 -20.5505 83.6371
lradius 30.776 0 0
lwrist 6.59601 0 0
lhand -16.4781 -25.2135 0
lfingers 7.12502 0 0
lthumb 9.73876 4.53849 0
rclavicle -1.09871e-14 2.15383e-14 0
rhumerus -46.5666 9.83587 -86.1317
rradius 39.1007 0 0
rwrist -20.1309 0 0
rhand -33.6096 -22.5457 0
rfingers 7.12502 0 0
rthumb -6.80281 -52.4184 0
479
root 10.9155 17.348 30.7835 4.17394 4.06338 4.50476
lfemur 6.09381 2.65144 -29.9066
ltibia 4.99743 0 0
lfoot -14.2203 4.3211 0
ltoes 3.1335 0 0
rfemur -37.8772 6.50397 11.2549
rtibia 35.5089 0 0
rfoot -21.3188 -6.29024 0
rtoes -12.6327 0 0
lowerback -6.64874 -4.52803 -5.27318
upperback 1.25038 -5.66357 1.55009
thorax 5.72208 -3.00205 3.87715
lowerneck -22.9817 -2.36223 -9.83894
upperneck 24.288 -2.65515 9.98509
head 12.0776 -0.795398 5.01182
lclavicle -1.2418e-14 2.17138e-14 0
lhumerus -7.87115 -20.6138 83.4731
lradius 31.1497 0 0
lwrist 6.9068 0 0
lhand -16.6346 -25.2977 0
lfingers 7.12502 0 0
lthumb 9.58781 4.46207 0
rclavicle -1.2418e-14 2.17138e-14 0
rhumerus -46.616 9.74143 -86.0781
rradius 39.0304 0 0
rwrist -20.1613 0 0
rhand -33.4552 -22.5762 0
rfingers 7.12502 0 0
rthumb -6.65376 -52.4536 0
